M48
;Layer_Color=9474304
;FILE_FORMAT=4:4
METRIC,LZ
;TYPE=PLATED
T01F00S00C0.3000
T02F00S00C0.5000
%
T01
X0002Y00369
X00064Y00369387
Y00489193
X00031Y00489
X00042Y00609
X00064Y00609193
T02
X00072355Y00304645
X00088355
X00132355
X00148355
X00192355
X00208355
X00252355
X00268355
X00312355
X00328355
Y00424645
X00312355
X00268355
X00252355
X00208355
X00192355
X00148355
X00132355
X00088355
X00072355
Y00544645
X00088355
X00132355
X00148355
X00192355
X00208355
X00252355
X00268355
X00312355
X00328355
Y00664645
X00312355
X00268355
X00252355
X00208355
X00192355
X00148355
X00132355
X00088355
X00072355
Y00784645
X00088355
X00132355
X00148355
X00192355
X00208355
X00252355
X00268355
X00312355
X00328355
Y00904645
X00312355
X00268355
X00252355
X00208355
X00192355
X00148355
X00132355
X00088355
X00072355
X00072355Y01024645
X00088355
X00132355
X00148355
X00192355
X00208355
X00252355
X00268355
X00312355
X00328355
M30
