G04*
G04 #@! TF.GenerationSoftware,Altium Limited,Altium Designer,24.1.2 (44)*
G04*
G04 Layer_Color=8388736*
%FSLAX44Y44*%
%MOMM*%
G71*
G04*
G04 #@! TF.SameCoordinates,19925CEE-E599-4C59-BD36-36AD13F6144B*
G04*
G04*
G04 #@! TF.FilePolarity,Negative*
G04*
G01*
G75*
G04:AMPARAMS|DCode=11|XSize=2.1mm|YSize=5.1mm|CornerRadius=0.55mm|HoleSize=0mm|Usage=FLASHONLY|Rotation=0.000|XOffset=0mm|YOffset=0mm|HoleType=Round|Shape=RoundedRectangle|*
%AMROUNDEDRECTD11*
21,1,2.1000,4.0000,0,0,0.0*
21,1,1.0000,5.1000,0,0,0.0*
1,1,1.1000,0.5000,-2.0000*
1,1,1.1000,-0.5000,-2.0000*
1,1,1.1000,-0.5000,2.0000*
1,1,1.1000,0.5000,2.0000*
%
%ADD11ROUNDEDRECTD11*%
%ADD12O,1.1000X1.3000*%
D11*
X102250Y232000D02*
D03*
X129950D02*
D03*
X157650D02*
D03*
X185350D02*
D03*
X213050D02*
D03*
X240750D02*
D03*
X268250D02*
D03*
X296000D02*
D03*
D12*
X148355Y784645D02*
D03*
X132355D02*
D03*
X148355Y664645D02*
D03*
X132355D02*
D03*
X148355Y544645D02*
D03*
X132355D02*
D03*
X148355Y424645D02*
D03*
X132355D02*
D03*
X148355Y304645D02*
D03*
X132355D02*
D03*
X208355Y1024645D02*
D03*
X192355D02*
D03*
X208355Y904645D02*
D03*
X192355D02*
D03*
X208355Y784645D02*
D03*
X192355D02*
D03*
X88355Y1024645D02*
D03*
X72355D02*
D03*
X88355Y904645D02*
D03*
X72355D02*
D03*
X88355Y784645D02*
D03*
X72355D02*
D03*
X88355Y664645D02*
D03*
X72355D02*
D03*
X88355Y544645D02*
D03*
X72355D02*
D03*
X88355Y424645D02*
D03*
X72355D02*
D03*
X88355Y304645D02*
D03*
X72355D02*
D03*
X148355Y1024645D02*
D03*
X132355D02*
D03*
X148355Y904645D02*
D03*
X132355D02*
D03*
X208355Y664645D02*
D03*
X192355D02*
D03*
X208355Y544645D02*
D03*
X192355D02*
D03*
X208355Y424645D02*
D03*
X192355D02*
D03*
X208355Y304645D02*
D03*
X192355D02*
D03*
X268355Y1024645D02*
D03*
X252355D02*
D03*
X268355Y904645D02*
D03*
X252355D02*
D03*
X268355Y784645D02*
D03*
X252355D02*
D03*
X268355Y664645D02*
D03*
X252355D02*
D03*
X268355Y544645D02*
D03*
X252355D02*
D03*
X268355Y424645D02*
D03*
X252355D02*
D03*
X268355Y304645D02*
D03*
X252355D02*
D03*
X328355Y1024645D02*
D03*
X312355D02*
D03*
X328355Y904645D02*
D03*
X312355D02*
D03*
X328355Y784645D02*
D03*
X312355D02*
D03*
X328355Y664645D02*
D03*
X312355D02*
D03*
X328355Y544645D02*
D03*
X312355D02*
D03*
X328355Y424645D02*
D03*
X312355D02*
D03*
X328355Y304645D02*
D03*
X312355D02*
D03*
M02*
