G04*
G04 #@! TF.GenerationSoftware,Altium Limited,Altium Designer,24.1.2 (44)*
G04*
G04 Layer_Physical_Order=1*
G04 Layer_Color=255*
%FSLAX44Y44*%
%MOMM*%
G71*
G04*
G04 #@! TF.SameCoordinates,19925CEE-E599-4C59-BD36-36AD13F6144B*
G04*
G04*
G04 #@! TF.FilePolarity,Positive*
G04*
G01*
G75*
G04:AMPARAMS|DCode=10|XSize=2mm|YSize=5mm|CornerRadius=0.5mm|HoleSize=0mm|Usage=FLASHONLY|Rotation=0.000|XOffset=0mm|YOffset=0mm|HoleType=Round|Shape=RoundedRectangle|*
%AMROUNDEDRECTD10*
21,1,2.0000,4.0000,0,0,0.0*
21,1,1.0000,5.0000,0,0,0.0*
1,1,1.0000,0.5000,-2.0000*
1,1,1.0000,-0.5000,-2.0000*
1,1,1.0000,-0.5000,2.0000*
1,1,1.0000,0.5000,2.0000*
%
%ADD10ROUNDEDRECTD10*%
%ADD13C,0.4000*%
%ADD14O,1.0000X1.2000*%
%ADD15C,0.6000*%
D10*
X102250Y232000D02*
D03*
X129950D02*
D03*
X157650D02*
D03*
X185350D02*
D03*
X213050D02*
D03*
X240750D02*
D03*
X268250D02*
D03*
X296000D02*
D03*
D13*
X268250D02*
X268303Y232053D01*
Y304592D02*
X268355Y304645D01*
X268303Y232053D02*
Y304592D01*
X296000Y232000D02*
Y261219D01*
X213050Y232000D02*
Y297326D01*
X129950Y232000D02*
Y269950D01*
X102250Y232000D02*
Y289750D01*
X129950Y269950D02*
X148355Y288355D01*
Y304645D01*
Y424645D01*
X88355Y303645D02*
Y304645D01*
Y303645D02*
X102250Y289750D01*
X208355Y302021D02*
X213050Y297326D01*
X208355Y302021D02*
Y424645D01*
X296000Y261219D02*
X327426Y292645D01*
Y303715D01*
X63903Y609097D02*
X64000Y609193D01*
X42097Y609097D02*
X63903D01*
X42000Y609000D02*
X42097Y609097D01*
X268355Y304645D02*
Y424645D01*
X327426Y303715D02*
X328355Y304645D01*
X20193Y369193D02*
X63807D01*
X64000Y369387D01*
X20000Y369000D02*
X20193Y369193D01*
X88355Y424645D02*
Y544645D01*
Y304645D02*
Y424645D01*
X31000Y489000D02*
X63807D01*
X64000Y489193D01*
X88355Y904645D02*
Y1024645D01*
X328355Y904645D02*
Y1024645D01*
Y784645D02*
Y904645D01*
Y664645D02*
Y784645D01*
Y544645D02*
Y664645D01*
Y424645D02*
Y544645D01*
Y304645D02*
Y424645D01*
X268355Y904645D02*
Y1024645D01*
X208355Y904645D02*
Y1024645D01*
X268355Y784645D02*
Y904645D01*
X208355Y784645D02*
Y904645D01*
X268355Y664645D02*
Y784645D01*
X208355Y664645D02*
Y784645D01*
X268355Y544645D02*
Y664645D01*
X208355Y544645D02*
Y664645D01*
X268355Y424645D02*
Y544645D01*
X208355Y424645D02*
Y544645D01*
X148355Y904645D02*
Y1024645D01*
Y784645D02*
Y904645D01*
Y664645D02*
Y784645D01*
Y544645D02*
Y664645D01*
Y424645D02*
Y544645D01*
X88355D02*
Y664645D01*
Y784645D01*
Y904645D01*
D14*
X148355Y784645D02*
D03*
X132355D02*
D03*
X148355Y664645D02*
D03*
X132355D02*
D03*
X148355Y544645D02*
D03*
X132355D02*
D03*
X148355Y424645D02*
D03*
X132355D02*
D03*
X148355Y304645D02*
D03*
X132355D02*
D03*
X208355Y1024645D02*
D03*
X192355D02*
D03*
X208355Y904645D02*
D03*
X192355D02*
D03*
X208355Y784645D02*
D03*
X192355D02*
D03*
X88355Y1024645D02*
D03*
X72355D02*
D03*
X88355Y904645D02*
D03*
X72355D02*
D03*
X88355Y784645D02*
D03*
X72355D02*
D03*
X88355Y664645D02*
D03*
X72355D02*
D03*
X88355Y544645D02*
D03*
X72355D02*
D03*
X88355Y424645D02*
D03*
X72355D02*
D03*
X88355Y304645D02*
D03*
X72355D02*
D03*
X148355Y1024645D02*
D03*
X132355D02*
D03*
X148355Y904645D02*
D03*
X132355D02*
D03*
X208355Y664645D02*
D03*
X192355D02*
D03*
X208355Y544645D02*
D03*
X192355D02*
D03*
X208355Y424645D02*
D03*
X192355D02*
D03*
X208355Y304645D02*
D03*
X192355D02*
D03*
X268355Y1024645D02*
D03*
X252355D02*
D03*
X268355Y904645D02*
D03*
X252355D02*
D03*
X268355Y784645D02*
D03*
X252355D02*
D03*
X268355Y664645D02*
D03*
X252355D02*
D03*
X268355Y544645D02*
D03*
X252355D02*
D03*
X268355Y424645D02*
D03*
X252355D02*
D03*
X268355Y304645D02*
D03*
X252355D02*
D03*
X328355Y1024645D02*
D03*
X312355D02*
D03*
X328355Y904645D02*
D03*
X312355D02*
D03*
X328355Y784645D02*
D03*
X312355D02*
D03*
X328355Y664645D02*
D03*
X312355D02*
D03*
X328355Y544645D02*
D03*
X312355D02*
D03*
X328355Y424645D02*
D03*
X312355D02*
D03*
X328355Y304645D02*
D03*
X312355D02*
D03*
D15*
X64000Y609193D02*
D03*
X42000Y609000D02*
D03*
X20000Y369000D02*
D03*
X64000Y369387D02*
D03*
X31000Y489000D02*
D03*
X64000Y489193D02*
D03*
M02*
