G04*
G04 #@! TF.GenerationSoftware,Altium Limited,Altium Designer,24.1.2 (44)*
G04*
G04 Layer_Color=128*
%FSLAX44Y44*%
%MOMM*%
G71*
G04*
G04 #@! TF.SameCoordinates,19925CEE-E599-4C59-BD36-36AD13F6144B*
G04*
G04*
G04 #@! TF.FilePolarity,Positive*
G04*
G01*
G75*
G04:AMPARAMS|DCode=10|XSize=2mm|YSize=5mm|CornerRadius=0.5mm|HoleSize=0mm|Usage=FLASHONLY|Rotation=0.000|XOffset=0mm|YOffset=0mm|HoleType=Round|Shape=RoundedRectangle|*
%AMROUNDEDRECTD10*
21,1,2.0000,4.0000,0,0,0.0*
21,1,1.0000,5.0000,0,0,0.0*
1,1,1.0000,0.5000,-2.0000*
1,1,1.0000,-0.5000,-2.0000*
1,1,1.0000,-0.5000,2.0000*
1,1,1.0000,0.5000,2.0000*
%
%ADD10ROUNDEDRECTD10*%
%ADD16R,1.8000X1.1500*%
D10*
X115700Y232000D02*
D03*
X143400D02*
D03*
X171100D02*
D03*
X198800D02*
D03*
X226500D02*
D03*
X254000D02*
D03*
X281750D02*
D03*
D16*
X80356Y489387D02*
D03*
Y459387D02*
D03*
X140356Y489387D02*
D03*
Y459387D02*
D03*
Y369387D02*
D03*
Y339387D02*
D03*
X200355Y489387D02*
D03*
Y459387D02*
D03*
Y369387D02*
D03*
Y339387D02*
D03*
X260355Y489387D02*
D03*
Y459387D02*
D03*
Y369387D02*
D03*
Y339387D02*
D03*
X320355Y369387D02*
D03*
Y339387D02*
D03*
Y489387D02*
D03*
Y459387D02*
D03*
X80356Y729387D02*
D03*
Y699387D02*
D03*
X140356Y729387D02*
D03*
Y699387D02*
D03*
Y609387D02*
D03*
Y579387D02*
D03*
X200355Y729387D02*
D03*
Y699387D02*
D03*
Y609387D02*
D03*
Y579387D02*
D03*
X260355Y609387D02*
D03*
Y579387D02*
D03*
Y729387D02*
D03*
Y699387D02*
D03*
X320355Y729387D02*
D03*
Y699387D02*
D03*
Y609387D02*
D03*
Y579387D02*
D03*
X80356Y369387D02*
D03*
Y339387D02*
D03*
X140356Y969387D02*
D03*
Y939387D02*
D03*
X200355Y969387D02*
D03*
Y939387D02*
D03*
X260355Y969387D02*
D03*
Y939387D02*
D03*
X320355Y969387D02*
D03*
Y939387D02*
D03*
X80356Y609387D02*
D03*
Y579387D02*
D03*
Y849387D02*
D03*
Y819387D02*
D03*
Y1089387D02*
D03*
Y1059387D02*
D03*
X320355Y1089387D02*
D03*
Y1059387D02*
D03*
X260355Y1089387D02*
D03*
Y1059387D02*
D03*
X80356Y969387D02*
D03*
Y939387D02*
D03*
X140356Y1089387D02*
D03*
Y1059387D02*
D03*
Y849387D02*
D03*
Y819387D02*
D03*
X200355Y1089387D02*
D03*
Y1059387D02*
D03*
Y849387D02*
D03*
Y819387D02*
D03*
X260355Y849387D02*
D03*
Y819387D02*
D03*
X320355Y849387D02*
D03*
Y819387D02*
D03*
M02*
