G04*
G04 #@! TF.GenerationSoftware,Altium Limited,Altium Designer,24.1.2 (44)*
G04*
G04 Layer_Physical_Order=2*
G04 Layer_Color=16711680*
%FSLAX44Y44*%
%MOMM*%
G71*
G04*
G04 #@! TF.SameCoordinates,19925CEE-E599-4C59-BD36-36AD13F6144B*
G04*
G04*
G04 #@! TF.FilePolarity,Positive*
G04*
G01*
G75*
G04:AMPARAMS|DCode=10|XSize=2mm|YSize=5mm|CornerRadius=0.5mm|HoleSize=0mm|Usage=FLASHONLY|Rotation=0.000|XOffset=0mm|YOffset=0mm|HoleType=Round|Shape=RoundedRectangle|*
%AMROUNDEDRECTD10*
21,1,2.0000,4.0000,0,0,0.0*
21,1,1.0000,5.0000,0,0,0.0*
1,1,1.0000,0.5000,-2.0000*
1,1,1.0000,-0.5000,-2.0000*
1,1,1.0000,-0.5000,2.0000*
1,1,1.0000,0.5000,2.0000*
%
%ADD10ROUNDEDRECTD10*%
%ADD13C,0.4000*%
%ADD14O,1.0000X1.2000*%
%ADD15C,0.6000*%
%ADD16R,1.8000X1.1500*%
D10*
X115700Y232000D02*
D03*
X143400D02*
D03*
X171100D02*
D03*
X198800D02*
D03*
X226500D02*
D03*
X254000D02*
D03*
X281750D02*
D03*
D13*
Y244657D02*
X282750D01*
X292136Y254042D02*
X352212D01*
X282750Y244657D02*
X292136Y254042D01*
X254000Y230000D02*
Y261000D01*
X229004Y232504D02*
Y265802D01*
X226500Y230000D02*
X229004Y232504D01*
Y265802D02*
X237243Y274042D01*
X198800Y230000D02*
Y276200D01*
X171100Y230000D02*
Y270900D01*
X143400Y230000D02*
Y261000D01*
X115700Y230000D02*
Y244657D01*
X54000Y255000D02*
X105357D01*
X115700Y244657D01*
X139400Y265000D02*
X143400Y261000D01*
X58142Y265000D02*
X139400D01*
X62284Y275000D02*
X167000D01*
X171100Y270900D01*
X190000Y285000D02*
X198800Y276200D01*
X66426Y285000D02*
X190000D01*
X257042Y264042D02*
X348070D01*
X254000Y261000D02*
X257042Y264042D01*
X237243Y274042D02*
X343928D01*
X53000Y298426D02*
Y721000D01*
Y298426D02*
X66426Y285000D01*
X42000Y295284D02*
X62284Y275000D01*
X42000Y295284D02*
Y609000D01*
X31000Y292142D02*
X58142Y265000D01*
X31000Y292142D02*
Y489000D01*
X53000Y721000D02*
X61387Y729387D01*
X20000Y289000D02*
Y369000D01*
Y289000D02*
X54000Y255000D01*
X64000Y609193D02*
X80162D01*
X80356Y609387D01*
X140356Y369387D02*
X200355D01*
X80356D02*
X140356D01*
X64000D02*
X80356D01*
X230355D02*
Y369645D01*
X72355Y319145D02*
X80356Y327145D01*
X200355Y369387D02*
X230355D01*
X72355Y304645D02*
Y319145D01*
X320355Y1089387D02*
X347613D01*
X368000Y269830D02*
Y1069000D01*
X347613Y1089387D02*
X368000Y1069000D01*
X320355Y969387D02*
X350613D01*
X358000Y273972D02*
Y962000D01*
X350613Y969387D02*
X358000Y962000D01*
X320881Y848861D02*
X340139D01*
X348000Y278114D02*
Y841000D01*
X340139Y848861D02*
X348000Y841000D01*
X64000Y489193D02*
X80162D01*
X80356Y489387D01*
X61387Y729387D02*
X80356D01*
X200355D02*
X260355D01*
X320355D01*
X80356D02*
X140356D01*
X200355D01*
Y609387D02*
X260355D01*
X320355D01*
X80356D02*
X140356D01*
X200355D01*
X260355Y489387D02*
X320355D01*
X200355D02*
X260355D01*
X80356D02*
X140356D01*
X200355D01*
X140356Y327145D02*
Y339387D01*
X132355Y319145D02*
X140356Y327145D01*
X132355Y304645D02*
Y319145D01*
X200355Y327145D02*
Y339387D01*
X192355Y319145D02*
X200355Y327145D01*
X192355Y304645D02*
Y319145D01*
X343928Y274042D02*
X348000Y278114D01*
X352212Y254042D02*
X368000Y269830D01*
X348070Y264042D02*
X358000Y273972D01*
X320355Y849387D02*
X320881Y848861D01*
X260355Y849387D02*
X320355D01*
X230355Y369387D02*
X260355D01*
X320355D01*
X312355Y304645D02*
Y319145D01*
X320355Y327145D01*
Y339387D01*
X260355Y1089387D02*
X320355D01*
X312355Y1039145D02*
X320355Y1047145D01*
Y1059387D01*
X312355Y1024645D02*
Y1039145D01*
X132355Y1024645D02*
Y1039145D01*
X140356Y1047145D01*
Y1059387D01*
X80356Y327145D02*
Y339387D01*
X252355Y319145D02*
X260355Y327145D01*
X252355Y304645D02*
Y319145D01*
X260355Y327145D02*
Y339387D01*
X80356Y447145D02*
Y459387D01*
X72355Y424645D02*
Y439145D01*
X80356Y447145D01*
X132355Y439145D02*
X140356Y447145D01*
X132355Y424645D02*
Y439145D01*
X140356Y447145D02*
Y459387D01*
X192355Y439145D02*
X200355Y447145D01*
X192355Y424645D02*
Y439145D01*
X200355Y447145D02*
Y459387D01*
X252355Y439145D02*
X260355Y447145D01*
X252355Y424645D02*
Y439145D01*
X260355Y447145D02*
Y459387D01*
X312355Y439145D02*
X320355Y447145D01*
X312355Y424645D02*
Y439145D01*
X320355Y447145D02*
Y459387D01*
X80356Y567145D02*
Y579387D01*
X72355Y544645D02*
Y559145D01*
X80356Y567145D01*
X132355Y559145D02*
X140356Y567145D01*
X132355Y544645D02*
Y559145D01*
X140356Y567145D02*
Y579387D01*
X192355Y559145D02*
X200355Y567145D01*
X192355Y544645D02*
Y559145D01*
X200355Y567145D02*
Y579387D01*
X252355Y559145D02*
X260355Y567145D01*
X252355Y544645D02*
Y559145D01*
X260355Y567145D02*
Y579387D01*
X312355Y559145D02*
X320355Y567145D01*
X312355Y544645D02*
Y559145D01*
X320355Y567145D02*
Y579387D01*
X80356Y687145D02*
Y699387D01*
X72355Y664645D02*
Y679145D01*
X80356Y687145D01*
X132355Y679145D02*
X140356Y687145D01*
X132355Y664645D02*
Y679145D01*
X140356Y687145D02*
Y699387D01*
X192355Y679145D02*
X200355Y687145D01*
X192355Y664645D02*
Y679145D01*
X200355Y687145D02*
Y699387D01*
X252355Y679145D02*
X260355Y687145D01*
X252355Y664645D02*
Y679145D01*
X260355Y687145D02*
Y699387D01*
X312355Y679145D02*
X320355Y687145D01*
X312355Y664645D02*
Y679145D01*
X320355Y687145D02*
Y699387D01*
X80356Y807145D02*
Y819387D01*
X72355Y784645D02*
Y799145D01*
X80356Y807145D01*
X132355Y799145D02*
X140356Y807145D01*
X132355Y784645D02*
Y799145D01*
X140356Y807145D02*
Y819387D01*
X192355Y799145D02*
X200355Y807145D01*
X192355Y784645D02*
Y799145D01*
X200355Y807145D02*
Y819387D01*
X252355Y799145D02*
X260355Y807145D01*
X252355Y784645D02*
Y799145D01*
X260355Y807145D02*
Y819387D01*
X312355Y799145D02*
X320355Y807145D01*
X312355Y784645D02*
Y799145D01*
X320355Y807145D02*
Y819387D01*
X80356Y927145D02*
Y939387D01*
X72355Y904645D02*
Y919145D01*
X80356Y927145D01*
X132355Y919145D02*
X140356Y927145D01*
X132355Y904645D02*
Y919145D01*
X140356Y927145D02*
Y939387D01*
X192355Y919145D02*
X200355Y927145D01*
X192355Y904645D02*
Y919145D01*
X200355Y927145D02*
Y939387D01*
X252355Y919145D02*
X260355Y927145D01*
X252355Y904645D02*
Y919145D01*
X260355Y927145D02*
Y939387D01*
X312355Y919145D02*
X320355Y927145D01*
X312355Y904645D02*
Y919145D01*
X320355Y927145D02*
Y939387D01*
X260355Y1047145D02*
Y1059387D01*
X252355Y1024645D02*
Y1039145D01*
X260355Y1047145D01*
X200355D02*
Y1059387D01*
X192355Y1024645D02*
Y1039145D01*
X200355Y1047145D01*
X72355Y1039145D02*
X80356Y1047145D01*
X72355Y1024645D02*
Y1039145D01*
X80356Y1047145D02*
Y1059387D01*
X200355Y1089387D02*
X260355D01*
X140356D02*
X200355D01*
X80356D02*
X140356D01*
X80356Y849387D02*
X140356D01*
X200355D01*
X260355D01*
X80356Y969387D02*
X140356D01*
X200355D01*
X260355D01*
X320355D01*
D14*
X148355Y784645D02*
D03*
X132355D02*
D03*
X148355Y664645D02*
D03*
X132355D02*
D03*
X148355Y544645D02*
D03*
X132355D02*
D03*
X148355Y424645D02*
D03*
X132355D02*
D03*
X148355Y304645D02*
D03*
X132355D02*
D03*
X208355Y1024645D02*
D03*
X192355D02*
D03*
X208355Y904645D02*
D03*
X192355D02*
D03*
X208355Y784645D02*
D03*
X192355D02*
D03*
X88355Y1024645D02*
D03*
X72355D02*
D03*
X88355Y904645D02*
D03*
X72355D02*
D03*
X88355Y784645D02*
D03*
X72355D02*
D03*
X88355Y664645D02*
D03*
X72355D02*
D03*
X88355Y544645D02*
D03*
X72355D02*
D03*
X88355Y424645D02*
D03*
X72355D02*
D03*
X88355Y304645D02*
D03*
X72355D02*
D03*
X148355Y1024645D02*
D03*
X132355D02*
D03*
X148355Y904645D02*
D03*
X132355D02*
D03*
X208355Y664645D02*
D03*
X192355D02*
D03*
X208355Y544645D02*
D03*
X192355D02*
D03*
X208355Y424645D02*
D03*
X192355D02*
D03*
X208355Y304645D02*
D03*
X192355D02*
D03*
X268355Y1024645D02*
D03*
X252355D02*
D03*
X268355Y904645D02*
D03*
X252355D02*
D03*
X268355Y784645D02*
D03*
X252355D02*
D03*
X268355Y664645D02*
D03*
X252355D02*
D03*
X268355Y544645D02*
D03*
X252355D02*
D03*
X268355Y424645D02*
D03*
X252355D02*
D03*
X268355Y304645D02*
D03*
X252355D02*
D03*
X328355Y1024645D02*
D03*
X312355D02*
D03*
X328355Y904645D02*
D03*
X312355D02*
D03*
X328355Y784645D02*
D03*
X312355D02*
D03*
X328355Y664645D02*
D03*
X312355D02*
D03*
X328355Y544645D02*
D03*
X312355D02*
D03*
X328355Y424645D02*
D03*
X312355D02*
D03*
X328355Y304645D02*
D03*
X312355D02*
D03*
D15*
X64000Y609193D02*
D03*
X42000Y609000D02*
D03*
X20000Y369000D02*
D03*
X64000Y369387D02*
D03*
X31000Y489000D02*
D03*
X64000Y489193D02*
D03*
D16*
X80356Y489387D02*
D03*
Y459387D02*
D03*
X140356Y489387D02*
D03*
Y459387D02*
D03*
Y369387D02*
D03*
Y339387D02*
D03*
X200355Y489387D02*
D03*
Y459387D02*
D03*
Y369387D02*
D03*
Y339387D02*
D03*
X260355Y489387D02*
D03*
Y459387D02*
D03*
Y369387D02*
D03*
Y339387D02*
D03*
X320355Y369387D02*
D03*
Y339387D02*
D03*
Y489387D02*
D03*
Y459387D02*
D03*
X80356Y729387D02*
D03*
Y699387D02*
D03*
X140356Y729387D02*
D03*
Y699387D02*
D03*
Y609387D02*
D03*
Y579387D02*
D03*
X200355Y729387D02*
D03*
Y699387D02*
D03*
Y609387D02*
D03*
Y579387D02*
D03*
X260355Y609387D02*
D03*
Y579387D02*
D03*
Y729387D02*
D03*
Y699387D02*
D03*
X320355Y729387D02*
D03*
Y699387D02*
D03*
Y609387D02*
D03*
Y579387D02*
D03*
X80356Y369387D02*
D03*
Y339387D02*
D03*
X140356Y969387D02*
D03*
Y939387D02*
D03*
X200355Y969387D02*
D03*
Y939387D02*
D03*
X260355Y969387D02*
D03*
Y939387D02*
D03*
X320355Y969387D02*
D03*
Y939387D02*
D03*
X80356Y609387D02*
D03*
Y579387D02*
D03*
Y849387D02*
D03*
Y819387D02*
D03*
Y1089387D02*
D03*
Y1059387D02*
D03*
X320355Y1089387D02*
D03*
Y1059387D02*
D03*
X260355Y1089387D02*
D03*
Y1059387D02*
D03*
X80356Y969387D02*
D03*
Y939387D02*
D03*
X140356Y1089387D02*
D03*
Y1059387D02*
D03*
Y849387D02*
D03*
Y819387D02*
D03*
X200355Y1089387D02*
D03*
Y1059387D02*
D03*
Y849387D02*
D03*
Y819387D02*
D03*
X260355Y849387D02*
D03*
Y819387D02*
D03*
X320355Y849387D02*
D03*
Y819387D02*
D03*
M02*
